<?xml version="1.0" encoding="utf-8"?>
<!-- Generator: Adobe Illustrator 24.3.0, SVG Export Plug-In . SVG Version: 6.00 Build 0)  -->
<svg version="1.1" xmlns="http://www.w3.org/2000/svg" xmlns:xlink="http://www.w3.org/1999/xlink" x="0px" y="0px"
	 viewBox="0 0 70 50" style="enable-background:new 0 0 70 50;" xml:space="preserve">
<style type="text/css">
	.st0{fill:#FFFFFF;stroke:#AAAAAA;stroke-miterlimit:10;}
	.st1{fill:#231F20;}
	.st2{fill:#231F20;stroke:#231F20;stroke-miterlimit:10;}
</style>
<g id="Слой_1">
	<path class="st0" d="M32.3,49.54H4.55c-2.21,0-4-1.79-4-4v-41c0-2.21,1.79-4,4-4H32.3c2.21,0,4,1.79,4,4v41
		C36.3,47.75,34.51,49.54,32.3,49.54z"/>
	<g>
		<g id="svg_51">
			<g id="svg_44" transform="matrix(6.8780877319285185,0,0,7.355318704886938,148.27855831018044,447.97555494910654) ">
			</g>
			<g id="svg_43" transform="matrix(6.8780877319285185,0,0,7.355318704886938,148.27855831018044,447.97555494910654) ">
			</g>
			<g id="svg_42" transform="matrix(6.8780877319285185,0,0,7.355318704886938,148.27855831018044,447.97555494910654) ">
			</g>
			<g id="svg_41" transform="matrix(6.8780877319285185,0,0,7.355318704886938,148.27855831018044,447.97555494910654) ">
			</g>
			<g id="svg_40" transform="matrix(6.8780877319285185,0,0,7.355318704886938,148.27855831018044,447.97555494910654) ">
			</g>
			<g id="svg_39" transform="matrix(6.8780877319285185,0,0,7.355318704886938,148.27855831018044,447.97555494910654) ">
			</g>
			<g id="svg_38" transform="matrix(6.8780877319285185,0,0,7.355318704886938,148.27855831018044,447.97555494910654) ">
			</g>
			<g id="svg_37" transform="matrix(6.8780877319285185,0,0,7.355318704886938,148.27855831018044,447.97555494910654) ">
			</g>
			<g id="svg_36" transform="matrix(6.8780877319285185,0,0,7.355318704886938,148.27855831018044,447.97555494910654) ">
			</g>
			<g id="svg_35" transform="matrix(6.8780877319285185,0,0,7.355318704886938,148.27855831018044,447.97555494910654) ">
			</g>
			<g id="svg_34" transform="matrix(6.8780877319285185,0,0,7.355318704886938,148.27855831018044,447.97555494910654) ">
			</g>
			<g id="svg_33" transform="matrix(6.8780877319285185,0,0,7.355318704886938,148.27855831018044,447.97555494910654) ">
				<g id="svg_46">
					<g id="svg_47">
						<path id="svg_48" class="st1" d="M-20.1-59.41h-0.77v-0.11v-0.55c0-0.24,0.2-0.44,0.44-0.44c0.24,0,0.44,0.2,0.44,0.44v0.66
							C-19.99-59.41-20.1-59.41-20.1-59.41z M-20.65-59.62h0.44v-0.44c0-0.12-0.1-0.22-0.22-0.22c-0.12,0-0.22,0.1-0.22,0.22V-59.62
							z"/>
					</g>
					<g id="svg_49">
						<path id="svg_50" class="st1" d="M-20.43-54.61l-0.44-1.17v-3.84h0.88v3.85L-20.43-54.61L-20.43-54.61z M-20.65-55.82
							l0.22,0.58l0.22-0.58v-3.59h-0.44V-55.82z"/>
					</g>
				</g>
			</g>
			<g id="svg_32" transform="matrix(6.8780877319285185,0,0,7.355318704886938,148.27855831018044,447.97555494910654) ">
			</g>
			<g id="svg_31" transform="matrix(6.8780877319285185,0,0,7.355318704886938,148.27855831018044,447.97555494910654) ">
			</g>
			<g id="svg_30" transform="matrix(6.8780877319285185,0,0,7.355318704886938,148.27855831018044,447.97555494910654) ">
			</g>
			<g id="svg_29" transform="matrix(6.8780877319285185,0,0,7.355318704886938,148.27855831018044,447.97555494910654) ">
			</g>
			<g id="svg_28" transform="matrix(6.8780877319285185,0,0,7.355318704886938,148.27855831018044,447.97555494910654) ">
			</g>
			<g id="svg_27" transform="matrix(6.8780877319285185,0,0,7.355318704886938,148.27855831018044,447.97555494910654) ">
			</g>
			<g id="svg_26" transform="matrix(6.8780877319285185,0,0,7.355318704886938,148.27855831018044,447.97555494910654) ">
			</g>
			<g id="svg_25" transform="matrix(6.8780877319285185,0,0,7.355318704886938,148.27855831018044,447.97555494910654) ">
			</g>
			<g id="svg_24" transform="matrix(6.8780877319285185,0,0,7.355318704886938,148.27855831018044,447.97555494910654) ">
			</g>
		</g>
	</g>
</g>
<g id="Слой_2">
</g>
<g id="Слой_3">
	<g>
		<g>
			<path class="st1" d="M21.08,15.93v6.03h-2.94v-6.03l-4.6-9.59h3.08l2.99,6.72l2.99-6.72h3.08L21.08,15.93z"/>
			<path class="st1" d="M28.53,21.55c-0.72-0.38-1.27-0.93-1.64-1.66c-0.38-0.73-0.56-1.6-0.56-2.63v-1.82
				c0-1.01,0.19-1.87,0.56-2.59s0.92-1.27,1.64-1.64s1.59-0.56,2.6-0.56c1.02,0,1.89,0.19,2.6,0.56s1.27,0.92,1.64,1.64
				c0.38,0.72,0.56,1.58,0.56,2.59v1.85c0,1.02-0.19,1.89-0.56,2.6c-0.38,0.72-0.92,1.27-1.64,1.65c-0.72,0.38-1.59,0.57-2.6,0.57
				C30.12,22.12,29.25,21.93,28.53,21.55z M32.51,18.76c0.33-0.35,0.49-0.84,0.49-1.47v-1.85c0-0.62-0.17-1.11-0.49-1.45
				c-0.33-0.34-0.79-0.52-1.39-0.52c-0.59,0-1.04,0.17-1.37,0.52c-0.33,0.34-0.49,0.83-0.49,1.45v1.85c0,0.63,0.16,1.12,0.48,1.47
				c0.32,0.35,0.78,0.52,1.38,0.52C31.72,19.28,32.18,19.11,32.51,18.76z"/>
			<path class="st1" d="M41.58,17.58c0,0.54,0.15,0.95,0.46,1.25c0.3,0.3,0.73,0.45,1.28,0.45s0.98-0.15,1.27-0.46
				c0.3-0.3,0.45-0.74,0.45-1.31l0.15,2.44c-0.21,0.61-0.55,1.12-1.04,1.54c-0.48,0.42-1.07,0.62-1.77,0.62
				c-1.2,0-2.12-0.38-2.77-1.15c-0.65-0.77-0.98-1.86-0.98-3.27v-6.89h2.94V17.58z M45.04,10.81h2.93v11.15h-2.93V10.81z"/>
			<path class="st1" d="M50.87,10.81h3.16v11.15h-3.16V10.81z M56.62,13.59c-0.21-0.07-0.45-0.11-0.72-0.11
				c-0.59,0-1.05,0.19-1.38,0.57c-0.33,0.38-0.49,0.92-0.49,1.6l-0.23-2.9c0.31-0.67,0.71-1.18,1.2-1.55
				c0.49-0.37,1.03-0.55,1.62-0.55c0.47,0,0.89,0.07,1.26,0.22c0.38,0.15,0.7,0.36,0.98,0.65l-1.72,2.4
				C57,13.77,56.83,13.66,56.62,13.59z"/>
			<path class="st1" d="M13.65,25.74H25.1v2.84H13.65V25.74z M17.9,27.02h2.94v14.34H17.9V27.02z"/>
			<path class="st1" d="M26.53,40.66c-0.59-0.57-0.89-1.43-0.89-2.59c0-1.1,0.33-1.93,0.99-2.48c0.66-0.55,1.66-0.83,2.98-0.83h2.79
				l0.15,2.25h-2.93c-0.44,0-0.78,0.09-1,0.26c-0.22,0.18-0.33,0.44-0.33,0.8c0,0.37,0.14,0.64,0.42,0.81s0.7,0.26,1.27,0.26
				c0.79,0,1.37-0.09,1.76-0.27c0.38-0.18,0.57-0.46,0.57-0.84l0.23,1.62c-0.04,0.4-0.23,0.74-0.55,1.02
				c-0.33,0.28-0.73,0.49-1.22,0.63c-0.49,0.14-1.01,0.21-1.55,0.21C28.01,41.52,27.12,41.23,26.53,40.66z M32.31,34.29
				c0-0.52-0.17-0.91-0.52-1.19s-0.83-0.42-1.46-0.42c-0.42,0-0.83,0.07-1.24,0.2c-0.41,0.14-0.77,0.33-1.08,0.57l-1.83-1.79
				c0.44-0.51,1.03-0.9,1.76-1.19s1.54-0.42,2.43-0.42c0.97,0,1.8,0.16,2.49,0.49s1.21,0.8,1.57,1.42c0.36,0.62,0.54,1.37,0.54,2.24
				v7.17h-2.67V34.29z"/>
			<path class="st1" d="M40.21,41.34c-0.63-0.12-1.22-0.29-1.77-0.52s-1.04-0.5-1.46-0.83l1.82-2.27c0.54,0.34,1.1,0.61,1.69,0.79
				c0.59,0.19,1.15,0.28,1.68,0.28c0.69,0,1.22-0.08,1.6-0.23s0.57-0.37,0.57-0.64c0-0.25-0.08-0.44-0.25-0.57s-0.38-0.22-0.63-0.27
				s-0.62-0.1-1.08-0.15c-0.13-0.01-0.26-0.03-0.39-0.04c-0.13-0.01-0.27-0.03-0.4-0.04c-0.03-0.01-0.06-0.01-0.09-0.02
				c-0.03,0-0.06-0.01-0.09-0.01c-0.83-0.11-1.5-0.24-2-0.4c-0.5-0.16-0.93-0.46-1.27-0.91c-0.35-0.45-0.52-1.1-0.52-1.95
				c0-0.74,0.18-1.38,0.54-1.91c0.36-0.53,0.88-0.93,1.56-1.21s1.5-0.41,2.47-0.41c0.57,0,1.13,0.06,1.69,0.17
				c0.56,0.12,1.1,0.28,1.62,0.49s0.99,0.47,1.43,0.77l-1.75,2.14c-0.49-0.27-1-0.48-1.53-0.63s-1.04-0.23-1.53-0.23
				c-0.59,0-1.06,0.07-1.39,0.2c-0.33,0.14-0.49,0.33-0.49,0.57c0,0.19,0.09,0.33,0.26,0.44c0.17,0.1,0.39,0.18,0.65,0.23
				c0.26,0.05,0.64,0.1,1.14,0.16c0.06,0.01,0.13,0.01,0.19,0.02c0.06,0.01,0.13,0.01,0.19,0.02c0.03,0.01,0.06,0.01,0.1,0.01
				s0.07,0,0.1,0.01c0.87,0.1,1.57,0.23,2.12,0.39c0.54,0.16,1.01,0.47,1.39,0.95c0.38,0.47,0.57,1.17,0.57,2.08
				c0,0.77-0.19,1.44-0.56,1.99c-0.37,0.55-0.92,0.97-1.63,1.26c-0.72,0.29-1.58,0.43-2.59,0.43
				C41.48,41.52,40.83,41.46,40.21,41.34z"/>
			<path class="st1" d="M49.29,25.74h2.94v15.62h-2.94V25.74z M50.67,37.34l5.2-7.13h3.12l-7.92,10.38L50.67,37.34z M53.31,35.6
				l2.43-1.46l3.79,7.22h-3.41L53.31,35.6z"/>
			<path class="st1" d="M63.25,41.34c-0.63-0.12-1.22-0.29-1.77-0.52s-1.04-0.5-1.46-0.83l1.82-2.27c0.54,0.34,1.1,0.61,1.69,0.79
				c0.59,0.19,1.15,0.28,1.68,0.28c0.69,0,1.22-0.08,1.6-0.23s0.57-0.37,0.57-0.64c0-0.25-0.08-0.44-0.25-0.57s-0.38-0.22-0.63-0.27
				s-0.62-0.1-1.08-0.15c-0.13-0.01-0.26-0.03-0.39-0.04c-0.13-0.01-0.27-0.03-0.4-0.04c-0.03-0.01-0.06-0.01-0.09-0.02
				c-0.03,0-0.06-0.01-0.09-0.01c-0.83-0.11-1.5-0.24-2-0.4c-0.5-0.16-0.93-0.46-1.27-0.91c-0.35-0.45-0.52-1.1-0.52-1.95
				c0-0.74,0.18-1.38,0.54-1.91c0.36-0.53,0.88-0.93,1.56-1.21s1.5-0.41,2.47-0.41c0.57,0,1.13,0.06,1.69,0.17
				c0.56,0.12,1.1,0.28,1.62,0.49s0.99,0.47,1.43,0.77l-1.75,2.14c-0.49-0.27-1-0.48-1.53-0.63s-1.04-0.23-1.53-0.23
				c-0.59,0-1.06,0.07-1.39,0.2c-0.33,0.14-0.49,0.33-0.49,0.57c0,0.19,0.09,0.33,0.26,0.44c0.17,0.1,0.39,0.18,0.65,0.23
				c0.26,0.05,0.64,0.1,1.14,0.16c0.06,0.01,0.13,0.01,0.19,0.02c0.06,0.01,0.13,0.01,0.19,0.02c0.03,0.01,0.06,0.01,0.1,0.01
				s0.07,0,0.1,0.01c0.87,0.1,1.57,0.23,2.12,0.39c0.54,0.16,1.01,0.47,1.39,0.95c0.38,0.47,0.57,1.17,0.57,2.08
				c0,0.77-0.19,1.44-0.56,1.99c-0.37,0.55-0.92,0.97-1.63,1.26c-0.72,0.29-1.58,0.43-2.59,0.43
				C64.53,41.52,63.88,41.46,63.25,41.34z"/>
		</g>
	</g>
</g>
<g id="Слой_4">
	<line class="st2" x1="7.76" y1="45.85" x2="69.3" y2="45.85"/>
</g>
</svg>
